<svg height="18" viewBox="0 0 225 18" width="225" xmlns="http://www.w3.org/2000/svg" xmlns:xlink="http://www.w3.org/1999/xlink"><mask id="a" fill="#fff"><path d="m0 .13484876h17.3451079v16.65256144h-17.3451079z" fill="none"/></mask><g fill="none" fill-rule="evenodd" transform="translate(0 -4)"><g transform="translate(0 4)"><g fill="#fff"><path d="m98.0021269 17.2445595h-1.6654765c-.1914172 0-.3468519-.1554347-.3468519-.3468519v-15.54248856c0-.19166197.1554347-.34709665.3468519-.34709665h1.6654765c.1914172 0 .3468518.15543468.3468518.34709665v15.54248856c0 .1914172-.1554346.3468519-.3468518.3468519"/><path d="m101.193825 3.0897966h-4.8571501c-.1914172 0-.3468519-.15543468-.3468519-.34685187v-1.38765226c0-.19166197.1554347-.34709665.3468519-.34709665h4.8571501c.191662 0 .346852.15543468.346852.34709665v1.38765226c0 .19141719-.15519.34685187-.346852.34685187"/><path d="m114.739382 16.7239145-5.475217-9.45972994c-.030353-.05287227-.046753-.11259835-.046753-.17379311v-6.15154152c0-.19166197-.15519-.34685187-.346852-.34685187h-2.428208c-.191907 0-.347096.1551899-.347096.34685187v6.24480233l-5.473749 9.54148614c-.13267.2310714.034514.5194211.301078.5194211h2.322464c.124347 0 .239149-.0665799.300833-.1742827l3.967623-6.9162311c.06658-.1157805.233764-.1162701.300589-.0007344l4.004095 6.9181894c.061929.1069685.176486.1730588.300344.1730588h2.320505c.267299 0 .434238-.2895736.300344-.520645"/><path d="m101.924809 1.0082203h-1.658378c-.172814 0-.3194369.12752987-.34367.2986304l-.8280875 5.89183099c-.0048955.03598252-.0041612.07245459.0019583.10843711l1.1805692 6.6942166c.056299.3194366.480991.3938494.642545.1125984l1.265507-2.2061933c.040389-.0704964.054831-.1529869.040634-.2330297l-.770075-4.367592c-.00612-.03598252-.006854-.07245459-.001958-.10843711l.81438-5.79514327c.029373-.20879651-.132671-.39531812-.343425-.39531812"/><path d="m70.4140627 1.83674832h-1.1981932-15.3718777c-.1899485 0-.3439145.15396601-.3439145.34391453v1.68995434c0 .18970374.153966.34391452.3439145.34391452h15.0279631c.1901933 0 .3439146.15396601.3439146.34391453v9.70720156c0 .1899485-.1537213.3439145-.3439146.3439145h-3.1184847c-.1231238 0-.2367013.0658456-.2981408.1720797l-.9233065 1.5996309c-.1324254.2293579.0328004.5162389.2978961.5162389h4.3859505 1.1981932c.9499874 0 1.7200622-.7703196 1.7200622-1.7203069v-10.96267319-.65772122c0-.94998737-.7700748-1.72006217-1.7200622-1.72006217"/><path d="m61.1409034.52380262-8.0294862 14.86126858c-.0271705.0501797-.0413677.1064789-.0413677.1635124v1.0048179c0 .1899485.153966.3441593.3441593.3441593h1.8094065c.126306 0 .2423313-.0695173.3025469-.180647l8.572406-15.86608641c.1238582-.22911316-.042102-.5074269-.3025468-.5074269h-2.3525712c-.126306 0-.242576.06927246-.3025468.18040213"/><path d="m35.3404849.29133599-4.7159126 2.72341136c-.1064789.06143954-.1720796.175017-.1720796.29789607v2.03337931c0 .2648509.286881.43032151.5159941.29789607l2.0720544-1.19647985c.1148014-.06633511.2579971.0164002.2579971.14882564v11.95721031c0 .1897037.1542108.3439145.3441593.3439145h1.8698669c.1899486 0 .3439146-.1542108.3439146-.3439145v-13.73210297-2.23213988c0-.26485089-.2866363-.43032151-.5159942-.29789606"/><path d="m50.6630885 15.3090428-5.0267819-5.99072167c-.052138-.0619291-.0805323-.14025838-.0805323-.22103546v-8.40987275c0-.18994852-.153966-.3441593-.3441593-.3441593h-2.4460768c-.1901933 0-.3441593.15421078-.3441593.3441593v8.40987275c0 .08077708-.0283943.15910636-.0805323.22103546l-5.0267819 5.99072167c-.0518932.0619291-.0805323.1402584-.0805323.2210355v1.0234211c0 .1897037.1542108.3439145.3441593.3439145h1.6598465c.1015833 0 .1980262-.0450393.2633822-.1228791l4.3558427-5.1912734c.0687829-.0817562.1948441-.0817562.263627 0l4.3558426 5.1912734c.065356.0778398.161799.1228791.263627.1228791h1.6596018c.1901933 0 .3441593-.1542108.3441593-.3439145v-1.0234211c0-.0807771-.0286392-.1588616-.0805323-.2210355"/><path d="m40.6278586 8.91656532h-1.9242079c-.1784439 0-.3270248-.13658669-.3426906-.31405148l-.6016669-6.87755609c-.017624-.20120836.140748-.37402234.3426907-.37402234h1.9242078c.1784439 0 .3270248.13634191.3424459.31405148l.6019116 6.87755609c.0176241.20096358-.1409927.37402234-.3426906.37402234"/><path d="m47.3498331 8.91656532h1.9242079c.1781991 0 .3270248-.13658669.3426906-.31405148l.6016668-6.87755609c.0176241-.20120836-.1407479-.37402234-.3426906-.37402234h-1.9242078c-.178444 0-.3270248.13634191-.3426907.31405148l-.6016668 6.87755609c-.0176241.20096358.1407479.37402234.3426906.37402234"/></g><path d="m20.9310294.24485245c-.7497581 0-1.5193433.19117242-2.2451131.6102341l-9.20736283 5.31586595c-1.34114424.77423604-1.70366197 2.38928801-1.09807868 3.62566683l2.39344921-1.38177756h.0002448l9.2073628-5.31586596c.3023021-.17452744.6217387-.26313744.9494978-.26313744.9233065 0 1.9198019.7338475 1.9198019 1.91955706v7.63147547c0 1.1857096-.9964954 1.9195571-1.9198019 1.9195571-.3277591 0-.6471957-.0883653-.9494978-.2628927l-2.4805906-1.432202c-.1375658.0991355-.2795376.193865-.4290976.2802719l-2.1337387 1.2319728 3.7478116 2.1638466c.725525.4188169 1.495355.6099893 2.2451131.6099893 2.352816 0 4.5107878-1.8811268 4.5107878-4.510543v-7.63147547c0-2.62892666-2.1582166-4.51054298-4.5107878-4.51054298" fill="#231916"/><path d="m4.51076328 16.7874102c.74975814 0 1.51934337-.1909276 2.24511316-.6099893l9.20736276-5.3161107c1.3411443-.7739913 1.703662-2.38928805 1.0980787-3.62566688l-2.3934492 1.38177756-9.2076076 5.31611072c-.30205731.1745275-.62173871.2628927-.94949782.2628927-.92306168 0-1.91955706-.7338475-1.91955706-1.9195571v-7.63147546c0-1.18570956.99649538-1.91955706 1.91955706-1.91955706.32775911 0 .64744051.08861.94949782.26289266l2.48059058 1.43220204c.13781058-.09889072.27953764-.19386498.42909762-.28027197l2.1337387-1.23197281-3.74781156-2.16384652c-.72552501-.4188169-1.49535502-.60998932-2.24511316-.60998932-2.35281593 0-4.51078776 1.88112676-4.51078776 4.51054298v7.63147546c0 2.6289267 2.15821661 4.510543 4.51078776 4.510543" fill="#e73f15" mask="url(#a)" transform="translate(0 .110053)"/><path d="m85.2236585 17.2445595h-2.2203905c-.191662 0-.3468519-.1554347-.3468519-.3468519v-11.44880425c0-.19166197.1551899-.34685187.3468519-.34685187h2.2203905c.1914172 0 .3468518.1551899.3468518.34685187v11.44880425c0 .1914172-.1554346.3468519-.3468518.3468519" fill="#fff"/><path d="m92.1848066 4.12653366h-16.9996581c-.1914172 0-.3468519-.15543468-.3468519-.34685187v-1.59595921c0-.19166197.1554347-.34685187.3468519-.34685187h16.9996581c.1914172 0 .3468519.1551899.3468519.34685187v1.59595921c0 .19141719-.1554347.34685187-.3468519.34685187" fill="#fff"/><path d="m91.6644064 9.95090355h-15.611761c-.1919068 0-.3470967-.15543468-.3470967-.34709665v-1.59571443c0-.19166197.1551899-.34685187.3470967-.34685187h15.611761c.1914172 0 .3468519.1551899.3468519.34685187v1.59571443c0 .19166197-.1554347.34709665-.3468519.34709665" fill="#fff"/><path d="m92.8787306 14.2954864h-18.3873103c-.191662 0-.3470966-.1554347-.3470966-.3470967v-1.5957144c0-.191662.1554346-.3468519.3470966-.3468519h18.3873103c.1914172 0 .3468519.1551899.3468519.3468519v1.5957144c0 .191662-.1554347.3470967-.3468519.3470967" fill="#fff"/><path d="m78.8711289.52536921-3.8168392 7.06432248c-.0271705.05066926-.0416125.10721322-.0416125.16498106v1.84906071c0 .19190675.1554347.34709665.3468519.34709665h1.3465294c.1275298 0 .2445342-.0700068.3052394-.18211559l4.8160272-8.91338319c.1248373-.23131618-.0425915-.51207771-.3052394-.51207771h-2.3457174c-.1272851 0-.2445342.0700068-.3052394.18211559" fill="#fff"/></g><text fill="#fff" font-family="PingFangSC-Regular, PingFang SC" font-size="18"><tspan x="118" y="19">提供技术支持</tspan></text></g></svg>